<svg xmlns="http://www.w3.org/2000/svg" xmlns:xlink="http://www.w3.org/1999/xlink" width="32" height="32" viewBox="0 0 32 32"><defs><linearGradient id="a"><stop offset="0" stop-color="#000092"/><stop offset="1" stop-color="#ff00f3"/></linearGradient><linearGradient id="b" x1="-.006" x2="30" y1="16.5" y2="16.5" gradientUnits="userSpaceOnUse" xlink:href="#a"/></defs><path fill="url(#b)" d="M 0.5078125 6 A 0.50004991 0.50004991 0 0 0 0.0078125 6.5 L 0.0078125 18.457031 A 0.50005 0.50005 0 0 0 0.0078125 18.53125 L 0.0078125 20.382812 A 0.50005 0.50005 0 0 0 0.0078125 20.619141 L 0.0078125 22.5 A 0.50004991 0.50004991 0 0 0 0.5078125 23 L 5.0585938 23 C 5.0347281 23.164387 5.007813 23.329202 5.0078125 23.5 C 5.0078182 25.4271 6.5807373 27 8.5078125 27 C 10.434888 27 12.007807 25.4271 12.007812 23.5 C 12.007812 23.329202 11.980897 23.164387 11.957031 23 L 14.699219 23 L 20.507812 23 L 21.558594 23 C 21.534728 23.164387 21.507812 23.329202 21.507812 23.5 C 21.507812 25.4271 23.080738 27 25.007812 27 C 26.934887 27 28.507814 25.4271 28.507812 23.5 C 28.507812 23.329202 28.480897 23.164387 28.457031 23 L 31.507812 23 A 0.50005 0.50005 0 0 0 32.007812 22.5 L 32.007812 19.5 L 32.007812 17.5 L 32.007812 14.5 A 0.50005 0.50005 0 0 0 31.787109 14.085938 L 26.611328 8.171875 A 0.50004997 0.50004997 0 0 0 26.234375 8 L 21.007812 8 L 21.007812 6.5 A 0.50004991 0.50004991 0 0 0 20.507812 6 L 0.5078125 6 z M 1.0078125 7 L 20.007812 7 L 20.007812 8.4179688 A 0.50004997 0.50004997 0 0 0 20.007812 8.5820312 L 20.007812 18 L 1.0078125 18 L 1.0078125 7 z M 3 8 A 0.50005 0.50005 0 0 0 2.5078125 8.5078125 L 2.5078125 16.5 A 0.50005 0.50005 0 1 0 3.5078125 16.5 L 3.5078125 8.5078125 A 0.50005 0.50005 0 0 0 3 8 z M 6 8 A 0.50005 0.50005 0 0 0 5.5078125 8.5078125 L 5.5078125 16.5 A 0.50005 0.50005 0 1 0 6.5078125 16.5 L 6.5078125 8.5078125 A 0.50005 0.50005 0 0 0 6 8 z M 9 8 A 0.50005 0.50005 0 0 0 8.5078125 8.5078125 L 8.5078125 16.5 A 0.50005 0.50005 0 1 0 9.5078125 16.5 L 9.5078125 8.5078125 A 0.50005 0.50005 0 0 0 9 8 z M 12 8 A 0.50005 0.50005 0 0 0 11.507812 8.5078125 L 11.507812 16.5 A 0.50005 0.50005 0 1 0 12.507812 16.5 L 12.507812 8.5078125 A 0.50005 0.50005 0 0 0 12 8 z M 15 8 A 0.50005 0.50005 0 0 0 14.507812 8.5078125 L 14.507812 16.5 A 0.50005 0.50005 0 1 0 15.507812 16.5 L 15.507812 8.5078125 A 0.50005 0.50005 0 0 0 15 8 z M 18 8 A 0.50005 0.50005 0 0 0 17.507812 8.5078125 L 17.507812 16.5 A 0.50005 0.50005 0 1 0 18.507812 16.5 L 18.507812 8.5078125 A 0.50005 0.50005 0 0 0 18 8 z M 21.007812 9 L 26.007812 9 L 30.382812 14 L 21.007812 14 L 21.007812 9 z M 21.007812 15 L 31.007812 15 L 31.007812 17 L 29.507812 17 A 0.50005 0.50005 0 0 0 29.007812 17.5 L 29.007812 19.5 A 0.50005 0.50005 0 0 0 29.507812 20 L 31.007812 20 L 31.007812 22 L 28.15625 22 C 27.591603 20.822084 26.396783 20 25.007812 20 C 23.618843 20 22.424022 20.822084 21.859375 22 L 21.007812 22 L 21.007812 15 z M 22.449219 16.5 A 0.50004994 0.50004994 0 0 0 22.5 17.5 L 23.513672 17.5 A 0.50004994 0.50004994 0 1 0 23.513672 16.5 L 22.5 16.5 A 0.50004994 0.50004994 0 0 0 22.449219 16.5 z M 30.007812 18 L 31.007812 18 L 31.007812 19 L 30.007812 19 L 30.007812 18 z M 1.0078125 19 L 20.007812 19 L 20.007812 21.720703 L 20.007812 22 L 14.699219 22 L 11.65625 22 C 11.091603 20.822084 9.8967832 20 8.5078125 20 C 7.118842 20 5.9240223 20.822084 5.359375 22 L 1.0078125 22 L 1.0078125 21 L 2.5 21 A 0.50005 0.50005 0 1 0 2.5 20 L 1.0078125 20 L 1.0078125 19 z M 8.5078125 21 C 9.8944487 21 11.007809 22.1134 11.007812 23.5 C 11.007808 24.8867 9.8944487 26 8.5078125 26 C 7.1211764 26 6.0078166 24.8867 6.0078125 23.5 C 6.0078166 22.1134 7.1211764 21 8.5078125 21 z M 25.007812 21 C 26.394447 21 27.507812 22.1134 27.507812 23.5 C 27.507812 24.8867 26.394447 26 25.007812 26 C 23.621178 26 22.507814 24.8867 22.507812 23.5 C 22.507812 22.1134 23.621178 21 25.007812 21 z M 8.5078125 22 C 7.6853077 22 7.0078125 22.6775 7.0078125 23.5 C 7.0078125 24.3225 7.6853077 25 8.5078125 25 C 9.3303173 25 10.007813 24.3225 10.007812 23.5 C 10.007812 22.6775 9.3303173 22 8.5078125 22 z M 25.007812 22 C 24.185309 22 23.507812 22.6775 23.507812 23.5 C 23.507812 24.3225 24.185309 25 25.007812 25 C 25.830317 25 26.507814 24.3225 26.507812 23.5 C 26.507812 22.6775 25.830318 22 25.007812 22 z M 8.5078125 23 C 8.7898772 23 9.0078125 23.218 9.0078125 23.5 C 9.0078125 23.7821 8.7898772 24 8.5078125 24 C 8.2257478 24 8.0078125 23.7821 8.0078125 23.5 C 8.0078125 23.218 8.2257478 23 8.5078125 23 z M 25.007812 23 C 25.289877 23 25.507812 23.218 25.507812 23.5 C 25.507812 23.7821 25.289877 24 25.007812 24 C 24.725749 24 24.507812 23.7821 24.507812 23.5 C 24.507812 23.218 24.725749 23 25.007812 23 z " color="#000" font-family="sans-serif" font-weight="400" overflow="visible" white-space="normal" style="line-height:normal;text-indent:0;text-align:start;text-decoration-line:none;text-decoration-style:solid;text-decoration-color:#000;text-transform:none;block-progression:tb;isolation:auto;mix-blend-mode:normal"/></svg>